# xmcd
# 
# Track frame offsets:
#     150
#     13436
#     30411
#     43580
# 
# Disc length: 779
# 
# Revision: 0
# Processed by: cddbd v1.5.2PL0 Copyright (c) Steve Scherf et al.
# Submitted via: fre:ac v1.0.17
# 
DISCID=2a030904
DTITLE=SPYAIR - ジャパニケーション
DYEAR=2011
DGENRE=Rock
TTITLE0=ジャパニケーション
TTITLE1=Departure
TTITLE2=Just One
TTITLE3=Dead Coaster
EXTD=
EXTT0=
EXTT1=
EXTT2=
EXTT3=
PLAYORDER=
